# xmcd
#
# Track frame offsets: 
#        150
#        18643
#        33801
#        51592
#        69010
#        91568
#        106391
#        122454
#        143059
#        159089
#        176128
#        198350
#        210562
#        227563
#        238972
#        260763
#        271725
#        288893
#
# Disc length: 4091 seconds
#
# Revision: 0
# Processed by: cddbd v1.5.2PL0 Copyright (c) Steve Scherf et al.
# Submitted via: ExactAudioCopy v1.1
#
DISCID=f00ff912
DTITLE=Евгений Маргулис - Лучшее  CD1
DYEAR=2010
DGENRE=Blues
TTITLE0=Блюз для Анны
TTITLE1=Да и нет
TTITLE2=Джаз
TTITLE3=Земляничные поляны
TTITLE4=Когда ты уйдёшь
TTITLE5=Я еду по дороге
TTITLE6=Снег
TTITLE7=40 Лет
TTITLE8=Подруга номер пять
TTITLE9=Последняя
TTITLE10=Старые песни
TTITLE11=Телега
TTITLE12=Пусть она станет небом
TTITLE13=Я дам тебе знать
TTITLE14=Ветер все сильней
TTITLE15=Я рядом с тобой
TTITLE16=Соль мажор
TTITLE17=Мой друг лучше всех играет блюз
EXTD=
EXTT0=
EXTT1=
EXTT2=
EXTT3=
EXTT4=
EXTT5=
EXTT6=
EXTT7=
EXTT8=
EXTT9=
EXTT10=
EXTT11=
EXTT12=
EXTT13=
EXTT14=
EXTT15=
EXTT16=
EXTT17=
PLAYORDER=
